<svg version="1.1" xmlns="http://www.w3.org/2000/svg" viewBox="0 0 600.06640625 862.01171875" width="1800.19921875" height="2586.03515625">
  <g stroke-linecap="round" transform="translate(10 10) rotate(0 290.033203125 421.005859375)"><path d="M0.05 -1.52 C229.71 0.6, 456.86 1.8, 579.9 1.06 M-0.09 -0.35 C211.71 -3.03, 423.79 -2.48, 579.52 0.2 M579.82 -1.21 C579.55 231.78, 579.23 464.11, 580.45 842.16 M580.42 0.27 C577.73 272.56, 579.1 546.91, 580.23 841.94 M580.96 841.46 C351.21 838.67, 122.94 837.43, 0.04 843.5 M580.31 841.83 C364.02 837.46, 148.28 837.18, 0.71 841.71 M0.91 841.89 C-2.36 536.19, -0.97 230.87, -0.87 -0.38 M0.42 841.52 C0.61 542.64, 0.47 243.64, 0.69 -0.24" stroke="#000000" stroke-width="2" fill="none"></path></g></svg>